<svg xmlns="http://www.w3.org/2000/svg" viewBox="0 0 48 48" fill="none">
  <!-- Chess knight silhouette — geometric, optimised paths -->
  <!-- Base -->
  <rect x="8" y="42" width="32" height="3" rx="1.5" fill="currentColor" opacity="0.4"/>
  <!-- Body -->
  <path
    d="M14 42v-6c0-1.1.9-2 2-2h16c1.1 0 2 .9 2 2v6H14z"
    fill="currentColor"
    opacity="0.7"
  />
  <!-- Neck + head -->
  <path
    d="M18 34c0 0-2-4-2-8 0-3 1-5 3-7
       c1-1 1-2 1-3l2-3c.5-.8 1.2-1 2-1
       h4c2 0 3 1 3 3v2
       c1 .5 2 1.5 2 3 0 2-1.5 3-3 3
       h-2c-1 0-1.5.5-1.5 1.5V24
       c0 3-1 6-3 8
       c-1 1-2 2-2 2H18z"
    fill="currentColor"
  />
  <!-- Eye -->
  <circle cx="28" cy="16" r="1.2" fill="var(--bg, #080a09)"/>
  <!-- Nostril detail -->
  <path
    d="M21 25c1 1 2 1.5 3 1.5"
    stroke="var(--bg, #080a09)"
    stroke-width="1"
    stroke-linecap="round"
  />
</svg>
